{
	"asset":{
		"generator":"Khronos glTF Blender I/O v3.5.30",
		"version":"2.0"
	},
	"scene":0,
	"scenes":[
		{
			"name":"Scene",
			"nodes":[
				0,
				1,
				2,
				3,
				4,
				5,
				6,
				7
			]
		}
	],
	"nodes":[
		{
			"mesh":0,
			"name":"Cube",
			"translation":[
				0,
				1.167798399925232,
				0
			]
		},
		{
			"mesh":1,
			"name":"Cube.001",
			"scale":[
				1,
				1.0979256629943848,
				1
			],
			"translation":[
				0,
				1.167798399925232,
				0
			]
		},
		{
			"mesh":2,
			"name":"Plane",
			"translation":[
				0,
				1.167798399925232,
				0
			]
		},
		{
			"mesh":3,
			"name":"Sphere",
			"rotation":[
				0.7071068286895752,
				0,
				0,
				0.7071068286895752
			],
			"scale":[
				0.13115403056144714,
				0.13115403056144714,
				0.13115403056144714
			],
			"translation":[
				0.6016075611114502,
				1.167798399925232,
				0.5970499515533447
			]
		},
		{
			"mesh":4,
			"name":"Sphere.001",
			"rotation":[
				0.7071068286895752,
				0,
				0,
				0.7071068286895752
			],
			"scale":[
				0.13115403056144714,
				0.13115403056144714,
				0.13115403056144714
			],
			"translation":[
				0.6016075611114502,
				1.167798399925232,
				0.5970499515533447
			]
		},
		{
			"mesh":5,
			"name":"Cube.002",
			"translation":[
				0,
				1.167798399925232,
				0
			]
		},
		{
			"mesh":6,
			"name":"NurbsPath",
			"rotation":[
				-0.5,
				0.5,
				-0.5,
				0.5000000596046448
			],
			"scale":[
				0.201197549700737,
				0.201197549700737,
				0.201197549700737
			],
			"translation":[
				-0.28395596146583557,
				2.23077392578125,
				0
			]
		},
		{
			"mesh":7,
			"name":"Plane.001",
			"scale":[
				13.158348083496094,
				13.158348083496094,
				13.158348083496094
			],
			"translation":[
				-3.2229180335998535,
				0,
				-2.8191282749176025
			]
		}
	],
	"materials":[
		{
			"doubleSided":true,
			"name":"MAT_WHITE",
			"pbrMetallicRoughness":{
				"baseColorFactor":[
					0.6745657920837402,
					0.6895493268966675,
					0.7356566786766052,
					1
				],
				"metallicFactor":0,
				"roughnessFactor":0.4000000059604645
			}
		},
		{
			"doubleSided":true,
			"name":"MAT_GREEN",
			"pbrMetallicRoughness":{
				"baseColorFactor":[
					0.06864941865205765,
					0.4200340211391449,
					0.3202962875366211,
					1
				],
				"metallicFactor":0,
				"roughnessFactor":0.4000000059604645
			}
		},
		{
			"doubleSided":true,
			"name":"MAT_ATTACH",
			"pbrMetallicRoughness":{
				"baseColorFactor":[
					0.35055413842201233,
					0.04026879370212555,
					0.11206905543804169,
					1
				],
				"metallicFactor":0,
				"roughnessFactor":0.5
			}
		},
		{
			"doubleSided":true,
			"name":"MAT_YELLOW",
			"pbrMetallicRoughness":{
				"baseColorFactor":[
					0.7356566786766052,
					0.7353044748306274,
					0.058449823409318924,
					1
				],
				"metallicFactor":0,
				"roughnessFactor":0.4000000059604645
			}
		},
		{
			"doubleSided":true,
			"name":"MAT_PURPLE",
			"pbrMetallicRoughness":{
				"baseColorFactor":[
					0.040978606790304184,
					0.05784574896097183,
					0.3031964600086212,
					1
				],
				"metallicFactor":0,
				"roughnessFactor":0.5
			}
		}
	],
	"meshes":[
		{
			"name":"Cube",
			"primitives":[
				{
					"attributes":{
						"POSITION":0,
						"TEXCOORD_0":1,
						"NORMAL":2
					},
					"indices":3,
					"material":0
				}
			]
		},
		{
			"name":"Cube.001",
			"primitives":[
				{
					"attributes":{
						"POSITION":4,
						"TEXCOORD_0":5,
						"NORMAL":6
					},
					"indices":7,
					"material":1
				}
			]
		},
		{
			"name":"Plane.001",
			"primitives":[
				{
					"attributes":{
						"POSITION":8,
						"TEXCOORD_0":9,
						"NORMAL":10
					},
					"indices":11,
					"material":2
				}
			]
		},
		{
			"name":"Sphere",
			"primitives":[
				{
					"attributes":{
						"POSITION":12,
						"TEXCOORD_0":13,
						"NORMAL":14
					},
					"indices":15,
					"material":3
				}
			]
		},
		{
			"name":"Sphere.001",
			"primitives":[
				{
					"attributes":{
						"POSITION":16,
						"TEXCOORD_0":17,
						"NORMAL":18
					},
					"indices":19,
					"material":4
				}
			]
		},
		{
			"name":"Cube.003",
			"primitives":[
				{
					"attributes":{
						"POSITION":20,
						"TEXCOORD_0":21,
						"NORMAL":22
					},
					"indices":23,
					"material":4
				}
			]
		},
		{
			"name":"NurbsPath",
			"primitives":[
				{
					"attributes":{
						"POSITION":24,
						"TEXCOORD_0":25,
						"NORMAL":26
					},
					"indices":27,
					"material":4
				}
			]
		},
		{
			"name":"Plane.002",
			"primitives":[
				{
					"attributes":{
						"POSITION":28,
						"TEXCOORD_0":29,
						"NORMAL":30
					},
					"indices":31
				}
			]
		}
	],
	"accessors":[
		{
			"bufferView":0,
			"componentType":5126,
			"count":54,
			"max":[
				0.7181550860404968,
				0.9745530486106873,
				0.3281543552875519
			],
			"min":[
				-0.9331231713294983,
				-0.9745530486106873,
				-0.3281543552875519
			],
			"type":"VEC3"
		},
		{
			"bufferView":1,
			"componentType":5126,
			"count":54,
			"type":"VEC2"
		},
		{
			"bufferView":2,
			"componentType":5126,
			"count":54,
			"type":"VEC3"
		},
		{
			"bufferView":3,
			"componentType":5123,
			"count":156,
			"type":"SCALAR"
		},
		{
			"bufferView":4,
			"componentType":5126,
			"count":15600,
			"max":[
				0.9331231713294983,
				1.0509552955627441,
				0.48815208673477173
			],
			"min":[
				-1.093123197555542,
				-1.0509552955627441,
				-0.48815208673477173
			],
			"type":"VEC3"
		},
		{
			"bufferView":5,
			"componentType":5126,
			"count":15600,
			"type":"VEC2"
		},
		{
			"bufferView":6,
			"componentType":5126,
			"count":15600,
			"type":"VEC3"
		},
		{
			"bufferView":7,
			"componentType":5123,
			"count":91788,
			"type":"SCALAR"
		},
		{
			"bufferView":8,
			"componentType":5126,
			"count":11776,
			"max":[
				1.0449756383895874,
				0.2296787053346634,
				0.6074397563934326
			],
			"min":[
				0.3622193932533264,
				-0.2296786904335022,
				-0.6074397563934326
			],
			"type":"VEC3"
		},
		{
			"bufferView":9,
			"componentType":5126,
			"count":11776,
			"type":"VEC2"
		},
		{
			"bufferView":10,
			"componentType":5126,
			"count":11776,
			"type":"VEC3"
		},
		{
			"bufferView":11,
			"componentType":5123,
			"count":70644,
			"type":"SCALAR"
		},
		{
			"bufferView":12,
			"componentType":5126,
			"count":559,
			"max":[
				0.9999997019767761,
				1.0766860246658325,
				0.9999994039535522
			],
			"min":[
				-0.9999990463256836,
				-0.9233139157295227,
				-0.9999987483024597
			],
			"type":"VEC3"
		},
		{
			"bufferView":13,
			"componentType":5126,
			"count":559,
			"type":"VEC2"
		},
		{
			"bufferView":14,
			"componentType":5126,
			"count":559,
			"type":"VEC3"
		},
		{
			"bufferView":15,
			"componentType":5123,
			"count":2880,
			"type":"SCALAR"
		},
		{
			"bufferView":16,
			"componentType":5126,
			"count":1536,
			"max":[
				1.2499996423721313,
				0.3266860842704773,
				1.2499994039535522
			],
			"min":[
				-1.2499990463256836,
				-0.17331403493881226,
				-1.2499988079071045
			],
			"type":"VEC3"
		},
		{
			"bufferView":17,
			"componentType":5126,
			"count":1536,
			"type":"VEC2"
		},
		{
			"bufferView":18,
			"componentType":5126,
			"count":1536,
			"type":"VEC3"
		},
		{
			"bufferView":19,
			"componentType":5123,
			"count":2304,
			"type":"SCALAR"
		},
		{
			"bufferView":20,
			"componentType":5126,
			"count":242,
			"max":[
				0.3224185109138489,
				1.0689616203308105,
				0.555092990398407
			],
			"min":[
				-0.17283694446086884,
				-1.0689616203308105,
				0.49503093957901
			],
			"type":"VEC3"
		},
		{
			"bufferView":21,
			"componentType":5126,
			"count":242,
			"type":"VEC2"
		},
		{
			"bufferView":22,
			"componentType":5126,
			"count":242,
			"type":"VEC3"
		},
		{
			"bufferView":23,
			"componentType":5123,
			"count":756,
			"type":"SCALAR"
		},
		{
			"bufferView":24,
			"componentType":5126,
			"count":21160,
			"max":[
				2.0000922679901123,
				0.6118606328964233,
				6.641493466297277e-10
			],
			"min":[
				-2.179133415222168,
				-0.18357571959495544,
				-1.767840027809143
			],
			"type":"VEC3"
		},
		{
			"bufferView":25,
			"componentType":5126,
			"count":21160,
			"type":"VEC2"
		},
		{
			"bufferView":26,
			"componentType":5126,
			"count":21160,
			"type":"VEC3"
		},
		{
			"bufferView":27,
			"componentType":5123,
			"count":126948,
			"type":"SCALAR"
		},
		{
			"bufferView":28,
			"componentType":5126,
			"count":4,
			"max":[
				1,
				0,
				1
			],
			"min":[
				-1,
				0,
				-1
			],
			"type":"VEC3"
		},
		{
			"bufferView":29,
			"componentType":5126,
			"count":4,
			"type":"VEC2"
		},
		{
			"bufferView":30,
			"componentType":5126,
			"count":4,
			"type":"VEC3"
		},
		{
			"bufferView":31,
			"componentType":5123,
			"count":6,
			"type":"SCALAR"
		}
	],
	"bufferViews":[
		{
			"buffer":0,
			"byteLength":648,
			"byteOffset":0,
			"target":34962
		},
		{
			"buffer":0,
			"byteLength":432,
			"byteOffset":648,
			"target":34962
		},
		{
			"buffer":0,
			"byteLength":648,
			"byteOffset":1080,
			"target":34962
		},
		{
			"buffer":0,
			"byteLength":312,
			"byteOffset":1728,
			"target":34963
		},
		{
			"buffer":0,
			"byteLength":187200,
			"byteOffset":2040,
			"target":34962
		},
		{
			"buffer":0,
			"byteLength":124800,
			"byteOffset":189240,
			"target":34962
		},
		{
			"buffer":0,
			"byteLength":187200,
			"byteOffset":314040,
			"target":34962
		},
		{
			"buffer":0,
			"byteLength":183576,
			"byteOffset":501240,
			"target":34963
		},
		{
			"buffer":0,
			"byteLength":141312,
			"byteOffset":684816,
			"target":34962
		},
		{
			"buffer":0,
			"byteLength":94208,
			"byteOffset":826128,
			"target":34962
		},
		{
			"buffer":0,
			"byteLength":141312,
			"byteOffset":920336,
			"target":34962
		},
		{
			"buffer":0,
			"byteLength":141288,
			"byteOffset":1061648,
			"target":34963
		},
		{
			"buffer":0,
			"byteLength":6708,
			"byteOffset":1202936,
			"target":34962
		},
		{
			"buffer":0,
			"byteLength":4472,
			"byteOffset":1209644,
			"target":34962
		},
		{
			"buffer":0,
			"byteLength":6708,
			"byteOffset":1214116,
			"target":34962
		},
		{
			"buffer":0,
			"byteLength":5760,
			"byteOffset":1220824,
			"target":34963
		},
		{
			"buffer":0,
			"byteLength":18432,
			"byteOffset":1226584,
			"target":34962
		},
		{
			"buffer":0,
			"byteLength":12288,
			"byteOffset":1245016,
			"target":34962
		},
		{
			"buffer":0,
			"byteLength":18432,
			"byteOffset":1257304,
			"target":34962
		},
		{
			"buffer":0,
			"byteLength":4608,
			"byteOffset":1275736,
			"target":34963
		},
		{
			"buffer":0,
			"byteLength":2904,
			"byteOffset":1280344,
			"target":34962
		},
		{
			"buffer":0,
			"byteLength":1936,
			"byteOffset":1283248,
			"target":34962
		},
		{
			"buffer":0,
			"byteLength":2904,
			"byteOffset":1285184,
			"target":34962
		},
		{
			"buffer":0,
			"byteLength":1512,
			"byteOffset":1288088,
			"target":34963
		},
		{
			"buffer":0,
			"byteLength":253920,
			"byteOffset":1289600,
			"target":34962
		},
		{
			"buffer":0,
			"byteLength":169280,
			"byteOffset":1543520,
			"target":34962
		},
		{
			"buffer":0,
			"byteLength":253920,
			"byteOffset":1712800,
			"target":34962
		},
		{
			"buffer":0,
			"byteLength":253896,
			"byteOffset":1966720,
			"target":34963
		},
		{
			"buffer":0,
			"byteLength":48,
			"byteOffset":2220616,
			"target":34962
		},
		{
			"buffer":0,
			"byteLength":32,
			"byteOffset":2220664,
			"target":34962
		},
		{
			"buffer":0,
			"byteLength":48,
			"byteOffset":2220696,
			"target":34962
		},
		{
			"buffer":0,
			"byteLength":12,
			"byteOffset":2220744,
			"target":34963
		}
	],
	"buffers":[
		{
			"byteLength":2220756,
			"uri":"data:application/octet-stream;base64,"
		}
	]
}
